<svg viewBox="0 0 480 250" aria-hidden="true" focusable="false">
  <path d="M0 50H480M0 100H480M0 150H480M0 200H480M80 0V250M160 0V250M240 0V250M320 0V250M400 0V250" fill="none" stroke="#f3efdf" stroke-opacity="0.08" stroke-width="1"/>
  <g class="terrain-contour" fill="none" stroke="#c9b37a" stroke-opacity="0.35" stroke-width="1.2" stroke-dasharray="3 5">
    <path d="M0 120Q120 84 240 108T480 96"/>
    <path d="M0 146Q130 116 250 136T480 126"/>
    <path d="M0 76Q110 48 230 66T480 58"/>
  </g>
  <text x="12" y="18" fill="#e3b65a">ARMOR · FIRE · MANEUVER · SHOCK EFFECT</text>
  <text x="12" y="31" fill="#d6d2bf">TANK · CAVALRY · MECHANIZED INFANTRY</text>
  <path class="hill" d="M0 214C60 206 110 210 170 212C240 214 300 206 360 208C410 210 450 206 480 210V250H0Z" fill="#4b4a32"/>
  <path d="M0 226C80 222 160 230 240 226C320 222 400 232 480 226" fill="none" stroke="#6b6644" stroke-width="1.5"/>
  <path class="axis-line" d="M24 232H356" fill="none" stroke="#e3b65a" stroke-opacity="0.8" stroke-width="1.6" stroke-dasharray="6 5"/>
  <path d="M356 226L368 232L356 238Z" fill="#e3b65a" fill-opacity="0.8"/>
  <text x="30" y="246" fill="#d6d2bf">MECH INF</text>
  <text x="160" y="246" fill="#d6d2bf">TANK</text>
  <text x="292" y="246" fill="#d6d2bf">CAVALRY</text>
  <g class="aifv">
    <path d="M34 214H112V208L104 190H46L38 200Z" fill="#6b7a45" stroke="#1f231b" stroke-width="2" stroke-linejoin="round"/>
    <rect x="60" y="178" width="24" height="12" rx="2" fill="#586636" stroke="#1f231b" stroke-width="2"/>
    <path d="M84 182H100" stroke="#1f231b" stroke-width="3" stroke-linecap="round"/>
    <rect x="32" y="206" width="84" height="10" rx="5" fill="#2a2f24" stroke="#1f231b" stroke-width="2"/>
    <circle cx="46" cy="211" r="3" fill="#8a8f78"/><circle cx="64" cy="211" r="3" fill="#8a8f78"/><circle cx="82" cy="211" r="3" fill="#8a8f78"/><circle cx="100" cy="211" r="3" fill="#8a8f78"/>
  </g>
  <g id="dust" fill="#c9b37a">
    <circle class="dust-puff" cx="140" cy="208" r="7"/>
    <circle class="dust-puff" cx="130" cy="204" r="6"/>
    <circle class="dust-puff" cx="146" cy="200" r="5"/>
  </g>
  <g id="tank">
    <ellipse cx="206" cy="216" rx="54" ry="4" fill="#1b1f16" fill-opacity="0.5"/>
    <rect x="152" y="198" width="108" height="16" rx="8" fill="#2a2f24" stroke="#1f231b" stroke-width="2"/>
    <circle cx="166" cy="206" r="4" fill="#8a8f78"/><circle cx="186" cy="206" r="4" fill="#8a8f78"/><circle cx="206" cy="206" r="4" fill="#8a8f78"/><circle cx="226" cy="206" r="4" fill="#8a8f78"/><circle cx="246" cy="206" r="4" fill="#8a8f78"/>
    <path d="M156 198L166 182H248L258 198Z" fill="#6b7a45" stroke="#1f231b" stroke-width="2" stroke-linejoin="round"/>
    <rect x="180" y="164" width="52" height="18" rx="7" fill="#586636" stroke="#1f231b" stroke-width="2"/>
    <rect x="196" y="156" width="12" height="8" rx="2" fill="#4a5730" stroke="#1f231b" stroke-width="2"/>
    <g id="tank-gun">
      <rect x="230" y="169" width="40" height="6" rx="2" fill="#a3b36d" stroke="#1f231b" stroke-width="2"/>
      <rect x="266" y="167" width="8" height="10" rx="2" fill="#6b7a45" stroke="#1f231b" stroke-width="2"/>
    </g>
    <g id="muzzle-blast">
      <path d="M276 172L296 158L290 170L310 172L290 174L296 186Z" fill="#ffd166" stroke="#ff8a3d" stroke-width="2" stroke-linejoin="round"/>
      <circle cx="278" cy="172" r="5" fill="#fff3b0"/>
    </g>
  </g>
  <g class="cavalry">
    <path d="M296 214H352V208L346 196H306L300 200Z" fill="#7a7f64" stroke="#1f231b" stroke-width="2" stroke-linejoin="round"/>
    <rect x="314" y="186" width="20" height="10" rx="2" fill="#586636" stroke="#1f231b" stroke-width="2"/>
    <path d="M334 190H346" stroke="#1f231b" stroke-width="3" stroke-linecap="round"/>
    <circle cx="308" cy="214" r="7" fill="#2a2f24" stroke="#1f231b" stroke-width="2"/><circle cx="340" cy="214" r="7" fill="#2a2f24" stroke="#1f231b" stroke-width="2"/>
  </g>
  <g id="objective" fill="none" stroke="currentColor" stroke-width="1.5">
    <path d="M380 214V188H392V176H424V188H436V214Z" fill="#2a2f24" stroke-width="2"/>
    <path d="M392 188H424M408 176V214" stroke-opacity="0.5"/>
    <circle cx="408" cy="198" r="8"/>
    <path d="M408 186V193M408 203V210M396 198H403M413 198H420"/>
    <circle class="impact-pulse" cx="408" cy="198" r="14" stroke-width="2.5"/>
    <text x="378" y="170" fill="currentColor" stroke="none">OBJECTIVE</text>
  </g>
  <g id="shell">
    <ellipse cx="0" cy="0" rx="6" ry="3" fill="#e3b65a" stroke="#1f231b" stroke-width="1.5"/>
  </g>
</svg>
