<svg viewBox="0 0 480 250" aria-hidden="true" focusable="false">
  <path d="M0 50H480M0 100H480M0 150H480M0 200H480M80 0V250M160 0V250M240 0V250M320 0V250M400 0V250" fill="none" stroke="#f3efdf" stroke-opacity="0.08" stroke-width="1"/>
  <g class="terrain-contour" fill="none" stroke="#c9b37a" stroke-opacity="0.28" stroke-width="1.2" stroke-dasharray="3 5">
    <path d="M150 214Q230 150 320 160T480 150"/>
    <path d="M190 214Q250 172 330 178T480 172"/>
    <path d="M0 150Q60 132 130 140"/>
  </g>
  <text x="12" y="18" fill="#e3b65a">SIGNAL SUPPORT · COMBINED ARMS OPS</text>
  <text x="12" y="31" fill="#d6d2bf">CONNECT · COMMUNICATE · COORDINATE</text>
  <path class="hill" d="M0 214C80 208 160 216 240 212C320 208 400 216 480 210V250H0Z" fill="#3f4a2c"/>
  <path d="M0 226C80 222 160 230 240 226C320 222 400 232 480 226" fill="none" stroke="#5a6340" stroke-width="1.5"/>
  <g class="link-lines" fill="none" stroke="#e3b65a" stroke-opacity="0.8" stroke-width="1.6" stroke-dasharray="6 3" stroke-linecap="round">
    <path class="link-line" d="M118 128L296 70"/>
    <path class="link-line" d="M118 128L232 180"/>
    <path class="link-line" d="M118 128L322 182"/>
    <path class="link-line" d="M118 128L412 182"/>
    <path class="link-line" d="M322 80L339 176"/>
  </g>
  <g class="arm-marker arm-infantry" fill="#2a2f24" stroke="#d6d2bf" stroke-width="1.8">
    <rect x="232" y="176" width="34" height="22" rx="1"/>
    <path d="M232 176L266 198M266 176L232 198" fill="none"/>
    <path d="M249 198V212" fill="none" stroke-opacity="0.6"/>
  </g>
  <g class="arm-marker arm-armor" fill="#2a2f24" stroke="#d6d2bf" stroke-width="1.8">
    <rect x="322" y="176" width="34" height="22" rx="1"/>
    <rect x="328" y="181" width="22" height="12" rx="6" fill="none"/>
    <path d="M339 198V212" fill="none" stroke-opacity="0.6"/>
  </g>
  <g class="arm-marker arm-artillery" fill="#2a2f24" stroke="#d6d2bf" stroke-width="1.8">
    <rect x="412" y="176" width="34" height="22" rx="1"/>
    <circle cx="429" cy="187" r="3.5" fill="#d6d2bf" stroke="none"/>
    <path d="M429 198V212" fill="none" stroke-opacity="0.6"/>
  </g>
  <text x="249" y="240" fill="#d6d2bf" text-anchor="middle">INFANTRY</text>
  <text x="339" y="240" fill="#d6d2bf" text-anchor="middle">ARMOR</text>
  <text x="429" y="240" fill="#d6d2bf" text-anchor="middle">ARTILLERY</text>
  <text x="96" y="240" fill="#d6d2bf" text-anchor="middle">SIGNAL</text>
  <g id="dust" fill="none" stroke="#e3b65a" stroke-width="1.6">
    <circle class="dust-puff" cx="58" cy="70" r="6"/>
    <circle class="dust-puff" cx="58" cy="70" r="10"/>
    <circle class="dust-puff" cx="58" cy="70" r="14"/>
  </g>
  <g id="tank">
    <ellipse cx="96" cy="216" rx="72" ry="4" fill="#1b1f16" fill-opacity="0.5"/>
    <g id="tank-gun">
      <rect x="55" y="74" width="6" height="84" rx="1" fill="#a3a98c" stroke="#1f231b" stroke-width="1.5"/>
      <path d="M54 102H62M54 130H62" stroke="#1f231b" stroke-width="1.5"/>
      <path d="M44 76H72M48 70L58 64L68 70" fill="none" stroke="#d6d2bf" stroke-width="2" stroke-linecap="round" stroke-linejoin="round"/>
      <circle cx="58" cy="64" r="2.5" fill="#e3b65a"/>
    </g>
    <rect x="30" y="156" width="98" height="44" rx="3" fill="#6b7a45" stroke="#1f231b" stroke-width="2"/>
    <path d="M44 166H74V192H44Z" fill="#586636" stroke="#1f231b" stroke-width="1.5"/>
    <path d="M86 170H118M86 178H118M86 186H118" stroke="#1f231b" stroke-opacity="0.45" stroke-width="1.5"/>
    <path d="M130 200V182L138 172H160L168 186V200Z" fill="#586636" stroke="#1f231b" stroke-width="2" stroke-linejoin="round"/>
    <path d="M141 176H158L163 186H141Z" fill="#c9d3c0" fill-opacity="0.55"/>
    <rect x="24" y="198" width="146" height="9" rx="3" fill="#2a2f24" stroke="#1f231b" stroke-width="2"/>
    <circle cx="50" cy="206" r="9" fill="#2a2f24" stroke="#1f231b" stroke-width="2"/><circle cx="50" cy="206" r="3.5" fill="#8a8f78"/>
    <circle cx="80" cy="206" r="9" fill="#2a2f24" stroke="#1f231b" stroke-width="2"/><circle cx="80" cy="206" r="3.5" fill="#8a8f78"/>
    <circle cx="148" cy="206" r="9" fill="#2a2f24" stroke="#1f231b" stroke-width="2"/><circle cx="148" cy="206" r="3.5" fill="#8a8f78"/>
    <path d="M108 156V146" stroke="#1f231b" stroke-width="3"/>
    <g transform="translate(110 144) rotate(-30)">
      <path d="M-15 0A15 7 0 0 0 15 0Z" fill="#d9dcc8" stroke="#1f231b" stroke-width="2" stroke-linejoin="round"/>
      <path d="M0 2V-13" stroke="#1f231b" stroke-width="1.8"/>
      <circle cx="0" cy="-14" r="2.2" fill="#1f231b"/>
    </g>
    <g id="muzzle-blast" fill="none" stroke="#ffd166" stroke-width="2" stroke-linecap="round">
      <path d="M124 122A9 9 0 0 1 128 131"/>
      <path d="M128 115A16 16 0 0 1 135 131"/>
      <path d="M132 108A23 23 0 0 1 142 131"/>
    </g>
  </g>
  <g id="objective" fill="none" stroke="currentColor" stroke-width="1.5">
    <circle class="impact-pulse" cx="320" cy="66" r="20" stroke-width="2.5"/>
    <rect x="298" y="54" width="44" height="26" rx="2" fill="#2a2f24" stroke-width="2"/>
    <path d="M298 80V92" stroke-width="2"/>
    <path d="M306 61H334M306 67H334M306 73H326" stroke-opacity="0.55"/>
    <text x="320" y="47" fill="currentColor" stroke="none" text-anchor="middle">COMMANDER</text>
  </g>
  <g id="shell">
    <rect x="-5" y="-4" width="10" height="8" rx="2" fill="#ffd166" stroke="#1f231b" stroke-width="1.5"/>
  </g>
</svg>
